<?xml version="1.0" ?><svg enable-background="new 0 0 32 32" version="1.1" viewBox="0 0 32 32" xml:space="preserve" xmlns="http://www.w3.org/2000/svg" xmlns:xlink="http://www.w3.org/1999/xlink"><g id="Glyph"><g><g><path d="M16,3.006C8.835,3.006,3.007,8.836,3.007,16S8.835,28.993,16,28.993S28.994,23.164,28.994,16     S23.165,3.006,16,3.006z M13.938,23.545c-2.635,0-4.859-1.073-4.859-2.787c0-1.74,2.029-3.417,4.664-3.418     c0.287,0,0.552-0.004,0.822-0.004c-0.36-0.351-0.644-0.774-0.644-1.304c0-0.315,0.098-0.603,0.24-0.871     c-0.143,0.011-0.29,0.044-0.441,0.044c-2.164,0-3.614-1.483-3.614-3.39c0-1.866,2.003-3.359,4.13-3.359c1.186,0,4.65,0,4.65,0     L18.132,9.21h-1.697c0.998,0,1.511,1.455,1.511,2.648c0,1.003-0.556,1.734-1.34,2.347c-0.766,0.599-0.911,0.849-0.911,1.358     c0,0.435,0.82,1.173,1.249,1.476c1.253,0.889,1.659,1.713,1.659,3.086C18.602,21.838,16.943,23.545,13.938,23.545z      M24.921,15.994h-2.263v2.263h-1.509v-2.263h-2.263v-1.509h2.263v-2.263h1.509v2.263h2.263V15.994z" fill="#1A1718"/></g><g><path d="M16.239,11.82c-0.211-1.605-1.374-2.894-2.596-2.932c-1.222-0.036-2.042,1.193-1.832,2.8     c0.211,1.605,1.373,2.937,2.596,2.972C15.63,14.696,16.45,13.425,16.239,11.82z" fill="#1A1718"/></g><g><path d="M15.426,17.967c-0.359-0.115-0.756-0.183-1.18-0.188c-1.823-0.02-3.454,1.11-3.454,2.468     c0,1.385,1.315,2.538,3.137,2.538c2.561,0,3.455-1.083,3.455-2.468c0-0.166-0.022-0.33-0.058-0.49     C17.124,19.044,16.415,18.655,15.426,17.967z" fill="#1A1718"/></g><g><path d="M16,0C7.163,0,0,7.164,0,16s7.164,16,16,16c8.837,0,16-7.164,16-16S24.837,0,16,0z M16,29.493     C8.548,29.493,2.507,23.453,2.507,16S8.548,2.506,16,2.506c7.453,0,13.494,6.041,13.494,13.494S23.452,29.493,16,29.493z" fill="#1A1718"/></g></g></g></svg>